# xmcd CD database file
#
# Track frame offsets:
#	150
#	34337
#	67489
#	88644
#	111356
#	129522
#	170086
#	199156
#
# Disc length: 3061 seconds
#
# Revision: 0
# Processed by: cddbd v1.4PL0 Copyright (c) Steve Scherf et al.
# Submitted via: CDex 1.50
#
DISCID=7b0bf308
DTITLE=Natsuki Tamura Quartet - Hada Hada
DYEAR=1900
DGENRE=Jazz
TTITLE0=Hada Hada
TTITLE1=Incident
TTITLE2=Kagero
TTITLE3=Mizore
TTITLE4=Explorer
TTITLE5=Sateto
TTITLE6=Utage
TTITLE7=Jyonk
EXTD=
EXTT0=
EXTT1=
EXTT2=
EXTT3=
EXTT4=
EXTT5=
EXTT6=
EXTT7=
PLAYORDER=
